<mxfile host="app.diagrams.net" modified="2020-11-19T11:22:45.024Z" agent="5.0 (Windows NT 10.0; Win64; x64) AppleWebKit/537.36 (KHTML, like Gecko) Chrome/86.0.4240.198 Safari/537.36" etag="LicLiozF16iYbF_CyVAm" version="13.9.9" type="github">
  <diagram id="V7ZT_WsFmQ30Hu7aSB_w" name="Page-1">
    <mxGraphModel dx="1609" dy="435" grid="1" gridSize="10" guides="1" tooltips="1" connect="1" arrows="1" fold="1" page="1" pageScale="1" pageWidth="827" pageHeight="1169" math="0" shadow="0">
      <root>
        <mxCell id="0" />
        <mxCell id="1" parent="0" />
        <mxCell id="3EeVuSoONuKbgYVjYXrn-1" value="Internet" style="shape=mxgraph.ibm.box;prType=cloud;fontStyle=0;verticalAlign=top;align=left;spacingLeft=32;spacingTop=4;fillColor=none;rounded=0;whiteSpace=wrap;html=1;strokeColor=#4376BB;strokeWidth=3;dashed=0;container=1;spacing=-4;collapsible=0;expand=0;recursiveResize=0;" parent="1" vertex="1" treatAsSingle="0">
          <mxGeometry x="-120" y="585" width="130" height="95" as="geometry" />
        </mxCell>
        <mxCell id="3EeVuSoONuKbgYVjYXrn-2" value="" style="shape=image;html=1;verticalAlign=top;verticalLabelPosition=bottom;labelBackgroundColor=#ffffff;imageAspect=0;aspect=fixed;image=https://cdn3.iconfinder.com/data/icons/social-rounded-2/72/GitHub-128.png" parent="3EeVuSoONuKbgYVjYXrn-1" vertex="1">
          <mxGeometry x="40" y="22.5" width="50" height="50" as="geometry" />
        </mxCell>
        <mxCell id="3EeVuSoONuKbgYVjYXrn-3" value="Github" style="text;html=1;strokeColor=none;fillColor=none;align=center;verticalAlign=middle;whiteSpace=wrap;rounded=0;" parent="3EeVuSoONuKbgYVjYXrn-1" vertex="1">
          <mxGeometry x="45" y="69.5" width="40" height="20" as="geometry" />
        </mxCell>
        <mxCell id="3EeVuSoONuKbgYVjYXrn-4" value="Local machine" style="fontStyle=0;verticalAlign=top;align=center;spacingTop=-2;rounded=0;whiteSpace=wrap;html=1;strokeColor=#919191;strokeWidth=2;dashed=1;container=1;collapsible=0;expand=0;recursiveResize=0;fillColor=#F5F5F5;" parent="1" vertex="1" treatAsSingle="0">
          <mxGeometry x="220" y="530" width="870" height="400" as="geometry" />
        </mxCell>
        <mxCell id="3EeVuSoONuKbgYVjYXrn-8" value="Jenkins" style="fontStyle=0;verticalAlign=top;align=center;spacingTop=-2;rounded=0;whiteSpace=wrap;html=1;strokeWidth=1;dashed=0;container=1;collapsible=0;expand=0;recursiveResize=0;strokeColor=none;fillColor=#73DAFF;" parent="3EeVuSoONuKbgYVjYXrn-4" vertex="1" treatAsSingle="0">
          <mxGeometry x="40" y="50" width="810" height="120" as="geometry" />
        </mxCell>
        <mxCell id="3EeVuSoONuKbgYVjYXrn-9" value="Pull code" style="rounded=1;whiteSpace=wrap;html=1;" parent="3EeVuSoONuKbgYVjYXrn-8" vertex="1">
          <mxGeometry x="20" y="46.87" width="80" height="37.5" as="geometry" />
        </mxCell>
        <mxCell id="3EeVuSoONuKbgYVjYXrn-12" value="&lt;font style=&quot;font-size: 9px&quot;&gt;Run Script to login to APIM &amp;amp; push API&lt;/font&gt;" style="rounded=1;whiteSpace=wrap;html=1;" parent="3EeVuSoONuKbgYVjYXrn-8" vertex="1">
          <mxGeometry x="160" y="41.25" width="90" height="48.75" as="geometry" />
        </mxCell>
        <mxCell id="3EeVuSoONuKbgYVjYXrn-15" value="" style="shape=image;html=1;verticalAlign=top;verticalLabelPosition=bottom;labelBackgroundColor=#ffffff;imageAspect=0;aspect=fixed;image=https://cdn4.iconfinder.com/data/icons/logos-brands-5/24/jenkins-128.png" parent="3EeVuSoONuKbgYVjYXrn-8" vertex="1">
          <mxGeometry width="30" height="30" as="geometry" />
        </mxCell>
        <mxCell id="3EeVuSoONuKbgYVjYXrn-13" value="&lt;font style=&quot;font-size: 10px&quot;&gt;Run script to publish product&lt;/font&gt;" style="rounded=1;whiteSpace=wrap;html=1;" parent="3EeVuSoONuKbgYVjYXrn-8" vertex="1">
          <mxGeometry x="300" y="46.87" width="80" height="37.5" as="geometry" />
        </mxCell>
        <mxCell id="3EeVuSoONuKbgYVjYXrn-33" value="&lt;font style=&quot;font-size: 10px&quot;&gt;Trigger automated test&lt;/font&gt;" style="rounded=1;whiteSpace=wrap;html=1;" parent="3EeVuSoONuKbgYVjYXrn-8" vertex="1">
          <mxGeometry x="429" y="46.870000000000005" width="80" height="37.5" as="geometry" />
        </mxCell>
        <mxCell id="3EeVuSoONuKbgYVjYXrn-35" value="&lt;font style=&quot;font-size: 10px&quot;&gt;Clean up workspace&lt;/font&gt;" style="rounded=1;whiteSpace=wrap;html=1;" parent="3EeVuSoONuKbgYVjYXrn-8" vertex="1">
          <mxGeometry x="567" y="46.870000000000005" width="80" height="37.5" as="geometry" />
        </mxCell>
        <mxCell id="3EeVuSoONuKbgYVjYXrn-36" value="&lt;font style=&quot;font-size: 10px&quot;&gt;Send Email&lt;/font&gt;" style="rounded=1;whiteSpace=wrap;html=1;" parent="3EeVuSoONuKbgYVjYXrn-8" vertex="1">
          <mxGeometry x="700" y="46.870000000000005" width="80" height="37.5" as="geometry" />
        </mxCell>
        <mxCell id="Z0NxPcUFtwx0vX7oxXbM-15" value="" style="shape=step;perimeter=stepPerimeter;whiteSpace=wrap;html=1;fixedSize=1;size=10;fillColor=#660066;strokeColor=none;" vertex="1" parent="3EeVuSoONuKbgYVjYXrn-8">
          <mxGeometry x="110" y="55.629999999999995" width="30" height="20" as="geometry" />
        </mxCell>
        <mxCell id="Z0NxPcUFtwx0vX7oxXbM-16" value="" style="shape=step;perimeter=stepPerimeter;whiteSpace=wrap;html=1;fixedSize=1;size=10;fillColor=#660066;strokeColor=none;" vertex="1" parent="3EeVuSoONuKbgYVjYXrn-8">
          <mxGeometry x="260" y="55.629999999999995" width="30" height="20" as="geometry" />
        </mxCell>
        <mxCell id="Z0NxPcUFtwx0vX7oxXbM-17" value="" style="shape=step;perimeter=stepPerimeter;whiteSpace=wrap;html=1;fixedSize=1;size=10;fillColor=#660066;strokeColor=none;" vertex="1" parent="3EeVuSoONuKbgYVjYXrn-8">
          <mxGeometry x="390" y="55.620000000000005" width="30" height="20" as="geometry" />
        </mxCell>
        <mxCell id="Z0NxPcUFtwx0vX7oxXbM-18" value="" style="shape=step;perimeter=stepPerimeter;whiteSpace=wrap;html=1;fixedSize=1;size=10;fillColor=#660066;strokeColor=none;" vertex="1" parent="3EeVuSoONuKbgYVjYXrn-8">
          <mxGeometry x="520" y="55.629999999999995" width="30" height="20" as="geometry" />
        </mxCell>
        <mxCell id="Z0NxPcUFtwx0vX7oxXbM-19" value="" style="shape=step;perimeter=stepPerimeter;whiteSpace=wrap;html=1;fixedSize=1;size=10;fillColor=#660066;strokeColor=none;" vertex="1" parent="3EeVuSoONuKbgYVjYXrn-8">
          <mxGeometry x="660" y="55.629999999999995" width="30" height="20" as="geometry" />
        </mxCell>
        <mxCell id="3EeVuSoONuKbgYVjYXrn-43" value="" style="ellipse;whiteSpace=wrap;html=1;aspect=fixed;fillColor=#000099;" parent="3EeVuSoONuKbgYVjYXrn-4" vertex="1">
          <mxGeometry x="380" y="170" width="13" height="13" as="geometry" />
        </mxCell>
        <mxCell id="3EeVuSoONuKbgYVjYXrn-17" value="Jenkins Dependencies" style="fontStyle=0;verticalAlign=top;align=center;spacingTop=-2;rounded=0;whiteSpace=wrap;html=1;strokeWidth=1;dashed=0;container=1;collapsible=0;expand=0;recursiveResize=0;fillColor=#FFFFCC;strokeColor=none;" parent="1" vertex="1" treatAsSingle="0">
          <mxGeometry x="330" y="760" width="570" height="120" as="geometry" />
        </mxCell>
        <mxCell id="3EeVuSoONuKbgYVjYXrn-24" value="node.js" style="rounded=0;whiteSpace=wrap;html=1;" parent="3EeVuSoONuKbgYVjYXrn-17" vertex="1">
          <mxGeometry x="20" y="50" width="90" height="50" as="geometry" />
        </mxCell>
        <mxCell id="3EeVuSoONuKbgYVjYXrn-25" value="apic npm package" style="rounded=0;whiteSpace=wrap;html=1;" parent="3EeVuSoONuKbgYVjYXrn-17" vertex="1">
          <mxGeometry x="160" y="50" width="100" height="50" as="geometry" />
        </mxCell>
        <mxCell id="3EeVuSoONuKbgYVjYXrn-26" value="newman headless test runnner" style="rounded=0;whiteSpace=wrap;html=1;" parent="3EeVuSoONuKbgYVjYXrn-17" vertex="1">
          <mxGeometry x="300" y="50" width="120" height="50" as="geometry" />
        </mxCell>
        <mxCell id="3EeVuSoONuKbgYVjYXrn-27" value="" style="shape=image;html=1;verticalAlign=top;verticalLabelPosition=bottom;labelBackgroundColor=#ffffff;imageAspect=0;aspect=fixed;image=https://cdn2.iconfinder.com/data/icons/nodejs-1/128/nodejs-128.png" parent="3EeVuSoONuKbgYVjYXrn-17" vertex="1">
          <mxGeometry y="30" width="34" height="34" as="geometry" />
        </mxCell>
        <mxCell id="3EeVuSoONuKbgYVjYXrn-28" value="" style="shape=image;html=1;verticalAlign=top;verticalLabelPosition=bottom;labelBackgroundColor=#ffffff;imageAspect=0;aspect=fixed;image=https://cdn4.iconfinder.com/data/icons/logos-brands-5/24/postman-128.png" parent="3EeVuSoONuKbgYVjYXrn-17" vertex="1">
          <mxGeometry x="290" y="40" width="20" height="20" as="geometry" />
        </mxCell>
        <mxCell id="3EeVuSoONuKbgYVjYXrn-29" value="" style="aspect=fixed;perimeter=ellipsePerimeter;html=1;align=center;shadow=0;dashed=0;fontColor=#4277BB;labelBackgroundColor=#ffffff;fontSize=12;spacingTop=3;image;image=img/lib/ibm/management/api_management.svg;" parent="3EeVuSoONuKbgYVjYXrn-17" vertex="1">
          <mxGeometry x="154" y="40" width="20" height="20" as="geometry" />
        </mxCell>
        <mxCell id="3EeVuSoONuKbgYVjYXrn-30" value="SMTP Server" style="rounded=0;whiteSpace=wrap;html=1;" parent="3EeVuSoONuKbgYVjYXrn-17" vertex="1">
          <mxGeometry x="460" y="50" width="100" height="50" as="geometry" />
        </mxCell>
        <mxCell id="3EeVuSoONuKbgYVjYXrn-31" value="" style="outlineConnect=0;fontColor=#232F3E;gradientColor=#4D72F3;gradientDirection=north;fillColor=#3334B9;strokeColor=#ffffff;dashed=0;verticalLabelPosition=bottom;verticalAlign=top;align=center;html=1;fontSize=12;fontStyle=0;aspect=fixed;shape=mxgraph.aws4.resourceIcon;resIcon=mxgraph.aws4.simple_email_service;" parent="3EeVuSoONuKbgYVjYXrn-17" vertex="1">
          <mxGeometry x="450" y="37" width="20" height="20" as="geometry" />
        </mxCell>
        <mxCell id="3EeVuSoONuKbgYVjYXrn-37" value="" style="pointerEvents=1;shadow=0;dashed=0;html=1;strokeColor=none;fillColor=#505050;labelPosition=center;verticalLabelPosition=bottom;verticalAlign=top;outlineConnect=0;align=center;shape=mxgraph.office.servers.reverse_proxy;" parent="1" vertex="1">
          <mxGeometry x="100" y="565.5" width="50" height="134" as="geometry" />
        </mxCell>
        <mxCell id="3EeVuSoONuKbgYVjYXrn-38" value="ngrok reverse proxy" style="text;html=1;strokeColor=none;fillColor=none;align=center;verticalAlign=middle;whiteSpace=wrap;rounded=0;" parent="1" vertex="1">
          <mxGeometry x="70" y="710" width="90" height="20" as="geometry" />
        </mxCell>
        <mxCell id="3EeVuSoONuKbgYVjYXrn-39" value="" style="endArrow=classic;html=1;exitX=0.992;exitY=0.572;exitDx=0;exitDy=0;exitPerimeter=0;" parent="1" source="3EeVuSoONuKbgYVjYXrn-1" edge="1">
          <mxGeometry width="50" height="50" relative="1" as="geometry">
            <mxPoint x="200" y="700" as="sourcePoint" />
            <mxPoint x="100" y="641" as="targetPoint" />
          </mxGeometry>
        </mxCell>
        <mxCell id="3EeVuSoONuKbgYVjYXrn-40" value="" style="endArrow=classic;html=1;exitX=0.992;exitY=0.572;exitDx=0;exitDy=0;exitPerimeter=0;" parent="1" target="3EeVuSoONuKbgYVjYXrn-8" edge="1">
          <mxGeometry width="50" height="50" relative="1" as="geometry">
            <mxPoint x="140.00000000000006" y="639.9999999999999" as="sourcePoint" />
            <mxPoint x="231.04000000000002" y="641.66" as="targetPoint" />
          </mxGeometry>
        </mxCell>
        <mxCell id="3EeVuSoONuKbgYVjYXrn-44" value="" style="endArrow=none;html=1;entryX=0.5;entryY=1;entryDx=0;entryDy=0;exitX=0.5;exitY=0;exitDx=0;exitDy=0;strokeWidth=4;strokeColor=#000066;" parent="1" edge="1" source="3EeVuSoONuKbgYVjYXrn-45">
          <mxGeometry width="50" height="50" relative="1" as="geometry">
            <mxPoint x="606.5" y="757" as="sourcePoint" />
            <mxPoint x="606.5" y="705.5" as="targetPoint" />
          </mxGeometry>
        </mxCell>
        <mxCell id="3EeVuSoONuKbgYVjYXrn-45" value="" style="ellipse;whiteSpace=wrap;html=1;aspect=fixed;fillColor=#000099;" parent="1" vertex="1">
          <mxGeometry x="600" y="750" width="13" height="13" as="geometry" />
        </mxCell>
        <mxCell id="Z0NxPcUFtwx0vX7oxXbM-2" value="" style="endArrow=none;html=1;entryX=0.5;entryY=1;entryDx=0;entryDy=0;exitX=0.5;exitY=0;exitDx=0;exitDy=0;strokeWidth=4;strokeColor=#000066;" edge="1" parent="1" target="3EeVuSoONuKbgYVjYXrn-45">
          <mxGeometry width="50" height="50" relative="1" as="geometry">
            <mxPoint x="606.5" y="757" as="sourcePoint" />
            <mxPoint x="606.5" y="705.5" as="targetPoint" />
          </mxGeometry>
        </mxCell>
        <mxCell id="Z0NxPcUFtwx0vX7oxXbM-5" value="Public Network" style="shape=mxgraph.ibm.box;prType=public;fontStyle=0;verticalAlign=top;align=left;spacingLeft=32;spacingTop=4;fillColor=none;rounded=0;whiteSpace=wrap;html=1;strokeColor=#4376BB;strokeWidth=3;dashed=0;container=1;spacing=-4;collapsible=0;expand=0;recursiveResize=0;" vertex="1" parent="1">
          <mxGeometry x="380" y="340" width="600" height="120" as="geometry" />
        </mxCell>
        <mxCell id="Z0NxPcUFtwx0vX7oxXbM-3" value="" style="strokeColor=#dddddd;shadow=1;strokeWidth=1;rounded=1;absoluteArcSize=1;arcSize=2;fillColor=#CCFFFF;" vertex="1" parent="Z0NxPcUFtwx0vX7oxXbM-5">
          <mxGeometry x="100" y="30" width="170" height="60" as="geometry" />
        </mxCell>
        <mxCell id="Z0NxPcUFtwx0vX7oxXbM-4" value="IBM API&lt;br&gt;Management Server" style="dashed=0;connectable=0;html=1;fillColor=#5184F3;strokeColor=none;shape=mxgraph.gcp2.hexIcon;prIcon=apigee_api_platform;part=1;labelPosition=right;verticalLabelPosition=middle;align=left;verticalAlign=middle;spacingLeft=5;fontColor=#999999;fontSize=12;" vertex="1" parent="Z0NxPcUFtwx0vX7oxXbM-3">
          <mxGeometry y="0.5" width="44" height="39" relative="1" as="geometry">
            <mxPoint x="5" y="-19.5" as="offset" />
          </mxGeometry>
        </mxCell>
        <mxCell id="Z0NxPcUFtwx0vX7oxXbM-7" value="" style="strokeColor=#dddddd;shadow=1;strokeWidth=1;rounded=1;absoluteArcSize=1;arcSize=2;fillColor=#CCFFFF;" vertex="1" parent="1">
          <mxGeometry x="740" y="370" width="170" height="60" as="geometry" />
        </mxCell>
        <mxCell id="Z0NxPcUFtwx0vX7oxXbM-8" value="API Gateway" style="dashed=0;connectable=0;html=1;fillColor=#5184F3;strokeColor=none;shape=mxgraph.gcp2.hexIcon;prIcon=apigee_api_platform;part=1;labelPosition=right;verticalLabelPosition=middle;align=left;verticalAlign=middle;spacingLeft=5;fontColor=#999999;fontSize=12;" vertex="1" parent="Z0NxPcUFtwx0vX7oxXbM-7">
          <mxGeometry y="0.5" width="44" height="39" relative="1" as="geometry">
            <mxPoint x="5" y="-19.5" as="offset" />
          </mxGeometry>
        </mxCell>
        <mxCell id="Z0NxPcUFtwx0vX7oxXbM-14" style="edgeStyle=orthogonalEdgeStyle;rounded=0;orthogonalLoop=1;jettySize=auto;html=1;exitX=0.5;exitY=0;exitDx=0;exitDy=0;strokeColor=#000066;strokeWidth=2;endArrow=none;endFill=0;" edge="1" parent="1" source="3EeVuSoONuKbgYVjYXrn-12">
          <mxGeometry relative="1" as="geometry">
            <mxPoint x="465" y="550" as="targetPoint" />
            <Array as="points" />
          </mxGeometry>
        </mxCell>
        <mxCell id="Z0NxPcUFtwx0vX7oxXbM-20" value="" style="shape=step;perimeter=stepPerimeter;whiteSpace=wrap;html=1;fixedSize=1;size=10;fillColor=#660066;strokeColor=none;rotation=-90;" vertex="1" parent="1">
          <mxGeometry x="454.5" y="535.5" width="20" height="15" as="geometry" />
        </mxCell>
        <mxCell id="Z0NxPcUFtwx0vX7oxXbM-24" style="edgeStyle=orthogonalEdgeStyle;rounded=0;orthogonalLoop=1;jettySize=auto;html=1;exitX=1;exitY=0.5;exitDx=0;exitDy=0;strokeColor=#000066;strokeWidth=2;endArrow=none;endFill=0;" edge="1" parent="1" source="Z0NxPcUFtwx0vX7oxXbM-20">
          <mxGeometry relative="1" as="geometry">
            <mxPoint x="475" y="631.25" as="sourcePoint" />
            <mxPoint x="465" y="460" as="targetPoint" />
            <Array as="points" />
          </mxGeometry>
        </mxCell>
        <mxCell id="Z0NxPcUFtwx0vX7oxXbM-28" style="edgeStyle=orthogonalEdgeStyle;rounded=0;orthogonalLoop=1;jettySize=auto;html=1;exitX=0.5;exitY=0;exitDx=0;exitDy=0;strokeColor=#000066;strokeWidth=2;endArrow=none;endFill=0;" edge="1" parent="1">
          <mxGeometry relative="1" as="geometry">
            <mxPoint x="606" y="626.25" as="sourcePoint" />
            <mxPoint x="606" y="555" as="targetPoint" />
            <Array as="points" />
          </mxGeometry>
        </mxCell>
        <mxCell id="Z0NxPcUFtwx0vX7oxXbM-29" value="" style="shape=step;perimeter=stepPerimeter;whiteSpace=wrap;html=1;fixedSize=1;size=10;fillColor=#660066;strokeColor=none;rotation=-90;" vertex="1" parent="1">
          <mxGeometry x="595.5" y="540.5" width="20" height="15" as="geometry" />
        </mxCell>
        <mxCell id="Z0NxPcUFtwx0vX7oxXbM-30" style="edgeStyle=orthogonalEdgeStyle;rounded=0;orthogonalLoop=1;jettySize=auto;html=1;exitX=1;exitY=0.5;exitDx=0;exitDy=0;strokeColor=#000066;strokeWidth=2;endArrow=none;endFill=0;" edge="1" parent="1" source="Z0NxPcUFtwx0vX7oxXbM-29">
          <mxGeometry relative="1" as="geometry">
            <mxPoint x="616" y="636.25" as="sourcePoint" />
            <mxPoint x="606" y="460" as="targetPoint" />
            <Array as="points" />
          </mxGeometry>
        </mxCell>
        <mxCell id="Z0NxPcUFtwx0vX7oxXbM-31" style="edgeStyle=orthogonalEdgeStyle;rounded=0;orthogonalLoop=1;jettySize=auto;html=1;strokeColor=#000066;strokeWidth=2;endArrow=none;endFill=0;" edge="1" parent="1">
          <mxGeometry relative="1" as="geometry">
            <mxPoint x="730" y="624" as="sourcePoint" />
            <mxPoint x="730" y="553" as="targetPoint" />
            <Array as="points" />
          </mxGeometry>
        </mxCell>
        <mxCell id="Z0NxPcUFtwx0vX7oxXbM-32" value="" style="shape=step;perimeter=stepPerimeter;whiteSpace=wrap;html=1;fixedSize=1;size=10;fillColor=#660066;strokeColor=none;rotation=-90;" vertex="1" parent="1">
          <mxGeometry x="719.5" y="538.5" width="20" height="15" as="geometry" />
        </mxCell>
        <mxCell id="Z0NxPcUFtwx0vX7oxXbM-33" style="edgeStyle=orthogonalEdgeStyle;rounded=0;orthogonalLoop=1;jettySize=auto;html=1;exitX=1;exitY=0.5;exitDx=0;exitDy=0;strokeColor=#000066;strokeWidth=2;endArrow=none;endFill=0;" edge="1" parent="1" source="Z0NxPcUFtwx0vX7oxXbM-32">
          <mxGeometry relative="1" as="geometry">
            <mxPoint x="740" y="634.25" as="sourcePoint" />
            <mxPoint x="730" y="463" as="targetPoint" />
            <Array as="points" />
          </mxGeometry>
        </mxCell>
      </root>
    </mxGraphModel>
  </diagram>
</mxfile>
